# xmcd CD database file
#
# Track frame offsets:
#	150
#	32201
#	54726
#	91171
#	102819
#	129080
#	164074
#	179468
#	218449
#	230816
#	248674
#	267112
#
# Disc length: 3807 seconds
#
# Revision: 0
# Processed by: cddbd v1.5.1PL0 Copyright (c) Steve Scherf et al.
# Submitted via: CDex 1.51
#
DISCID=9e0edd0c
DTITLE=Roy Buchanan - Guitar on Fire
DYEAR=1900
DGENRE=Blues
TTITLE0=Ramon's Blues
TTITLE1=The Heat of the Battle
TTITLE2=Green Onions
TTITLE3=Adventures of Brer Rabbit and Tar Baby
TTITLE4=Turn the Stone
TTITLE5=Fly... Night Bird
TTITLE6=Supernova
TTITLE7=Down by the River
TTITLE8=Running out
TTITLE9=My Friend Jeff
TTITLE10=If Six as Nine
TTITLE11=The messiah will come again
EXTD=
EXTT0=
EXTT1=
EXTT2=
EXTT3=
EXTT4=
EXTT5=
EXTT6=
EXTT7=
EXTT8=
EXTT9=
EXTT10=
EXTT11=
PLAYORDER=
